<svg width="32" height="60" viewBox="0 0 32 60" fill="none" xmlns="http://www.w3.org/2000/svg">
<path d="M31.9931 29.875C31.97 28.8847 31.5802 27.9382 30.8994 27.2188L6.8993 2.21879C6.16083 1.45586 5.15001 1.01684 4.08838 0.99795C3.02676 0.979063 2.00098 1.38185 1.23585 2.11803C0.470707 2.85421 0.028602 3.86372 0.00653648 4.92529C-0.015529 5.98685 0.384222 7.01385 1.11811 7.78119L22.4619 30L1.11811 52.2188C0.384222 52.9861 -0.015529 54.0131 0.00653648 55.0747C0.028602 56.1363 0.470707 57.1458 1.23585 57.882C2.00098 58.6181 3.02676 59.0209 4.08838 59.002C5.15001 58.9832 6.16083 58.5441 6.8993 57.7812L30.8994 32.7812C31.2662 32.3941 31.5519 31.9376 31.7398 31.4385C31.9276 30.9395 32.0137 30.4079 31.9931 29.875V29.875Z" fill="black"/>
</svg>
