<svg width="32" height="60" viewBox="0 0 32 60" fill="none" xmlns="http://www.w3.org/2000/svg">
    <path d="M0.00884449 30.1253C0.0320003 31.1155 0.421731 32.062 1.10259 32.7815L25.1027 57.7815C25.8411 58.5444 26.8519 58.9834 27.9136 59.0023C28.9752 59.0212 30.001 58.6184 30.7661 57.8822C31.5312 57.146 31.9734 56.1365 31.9954 55.075C32.0175 54.0134 31.6177 52.9864 30.8838 52.2191L9.54009 30.0003L30.8838 7.78144C31.6177 7.01411 32.0175 5.9871 31.9954 4.92554C31.9734 3.86398 31.5312 2.85447 30.7661 2.11829C30.001 1.38211 28.9752 0.979316 27.9136 0.998203C26.8519 1.01709 25.8411 1.45611 25.1027 2.21904L1.10259 27.2191C0.735786 27.6061 0.450033 28.0626 0.262201 28.5617C0.07437 29.0608 -0.011749 29.5924 0.00884449 30.1253V30.1253Z"
          fill="black"/>
</svg>
